<?xml version="1.0" encoding="UTF-8" standalone="no"?>
<!-- Generator: Adobe Illustrator 18.0.0, SVG Export Plug-In . SVG Version: 6.00 Build 0)  -->

<svg
   xmlns:dc="http://purl.org/dc/elements/1.1/"
   xmlns:cc="http://creativecommons.org/ns#"
   xmlns:rdf="http://www.w3.org/1999/02/22-rdf-syntax-ns#"
   xmlns:svg="http://www.w3.org/2000/svg"
   xmlns="http://www.w3.org/2000/svg"
   xmlns:sodipodi="http://sodipodi.sourceforge.net/DTD/sodipodi-0.dtd"
   xmlns:inkscape="http://www.inkscape.org/namespaces/inkscape"
   version="1.0"
   id="Layer_1"
   x="0px"
   y="0px"
   viewBox="0 0 24 24"
   enable-background="new 0 0 24 24"
   xml:space="preserve"
   inkscape:version="0.48.5 r10040"
   width="100%"
   height="100%"
   sodipodi:docname="ic_box.svg"
   inkscape:export-filename="/home/pierre/workspace/android-studio/Resume/app/src/main/res/drawable-xxxhdpi/ic_box.png"
   inkscape:export-xdpi="360"
   inkscape:export-ydpi="360"><metadata
     id="metadata11"><rdf:RDF><cc:Work
         rdf:about=""><dc:format>image/svg+xml</dc:format><dc:type
           rdf:resource="http://purl.org/dc/dcmitype/StillImage" /><dc:title /></cc:Work></rdf:RDF></metadata><defs
     id="defs9" /><sodipodi:namedview
     pagecolor="#ffffff"
     bordercolor="#666666"
     borderopacity="1"
     objecttolerance="10"
     gridtolerance="10"
     guidetolerance="10"
     inkscape:pageopacity="0"
     inkscape:pageshadow="2"
     inkscape:window-width="1920"
     inkscape:window-height="1053"
     id="namedview7"
     showgrid="false"
     inkscape:zoom="9.8333333"
     inkscape:cx="-23.491525"
     inkscape:cy="12"
     inkscape:window-x="0"
     inkscape:window-y="27"
     inkscape:window-maximized="1"
     inkscape:current-layer="Layer_1" /><path
     style="opacity:1;fill:#000000;fill-opacity:1"
     d="M 6.09375 4 C 5.39375 4 4.80625 4.4 4.40625 5 L 2.1875 8.59375 C 2.0875 8.79375 2 9.2 2 9.5 L 2 20 C 2 21.1 2.9 22 4 22 L 20 22 C 21.1 22 22 21.1 22 20 L 22 16 L 22 9.5 C 22 9.2 21.9125 8.79375 21.8125 8.59375 L 19.59375 5 C 19.19375 4.4 18.60625 4 17.90625 4 L 6.09375 4 z M 5.90625 6 L 11 6 L 11 9 L 4.1875 9 L 5.90625 6 z M 13 6 L 18.09375 6 L 19.8125 9 L 13 9 L 13 6 z M 9 11 L 15 11 C 15.6 11 16 11.4 16 12 C 16 12.6 15.6 13 15 13 L 9 13 C 8.4 13 8 12.6 8 12 C 8 11.4 8.4 11 9 11 z "
     id="path3" /></svg>